# xmcd
#
# Track frame offsets:
#	150
#	14016
#	26379
#	38219
#	50576
#	62849
#	75739
#	84701
#	99094
#	112088
#	124602
#	135911
#	149289
#	163619
#
# Disc length: 2357 seconds
#
# Revision: 0
# Processed by: cddbd v1.5.2PL0 Copyright (c) Steve Scherf et al.
# Submitted via: EasyCDDAExtractor 9.1.2.1
#
DISCID=b409330e
DTITLE=Jimmy Lawton - Oklahoma Square
DYEAR=1979
DGENRE=Country
TTITLE0=Oklahoma Square
TTITLE1=Country Green
TTITLE2=Your Love Takes Care Of Me
TTITLE3=Another Place, Another Time
TTITLE4=You're The One
TTITLE5=Someone Loves You Honey
TTITLE6=Fox On The Run
TTITLE7=It's Four In The Morning
TTITLE8=Just One Time
TTITLE9=Burning Bridges
TTITLE10=What's Made Milwakee Famous
TTITLE11=Would You Take Another Chance On Me
TTITLE12=Bright Lights and Country Music
TTITLE13=How I Love Them Old Songs
EXTD=
EXTT0=
EXTT1=
EXTT2=
EXTT3=
EXTT4=
EXTT5=
EXTT6=
EXTT7=
EXTT8=
EXTT9=
EXTT10=
EXTT11=
EXTT12=
EXTT13=
PLAYORDER=
